{
    "asset" : {
        "generator" : "Khronos glTF Blender I/O v1.4.40",
        "version" : "2.0"
    },
    "scene" : 0,
    "scenes" : [
        {
            "name" : "Scene",
            "nodes" : [
                0,
                1
            ]
        }
    ],
    "nodes" : [
        {
            "mesh" : 0,
            "name" : "11777_necklace_v1_l3",
            "rotation" : [
                0.5392040014266968,
                0,
                0,
                0.8421751856803894
            ],
            "scale" : [
                0.34754207730293274,
                0.34754204750061035,
                0.34754204750061035
            ],
            "translation" : [
                0.016933372244238853,
                0.0739143043756485,
                0.14520704746246338
            ]
        },
        {
            "mesh" : 1,
            "name" : "necklace",
            "rotation" : [
                0.7071068286895752,
                0,
                0,
                0.7071068286895752
            ],
            "scale" : [
                0.0023271674290299416,
                0.0023271674290299416,
                0.0023271674290299416
            ],
            "translation" : [
                0.00965278223156929,
                0.023990262299776077,
                0.03287795931100845
            ]
        }
    ],
    "materials" : [
        {
            "doubleSided" : true,
            "name" : "necklace_gold",
            "pbrMetallicRoughness" : {
                "baseColorFactor" : [
                    0.49410000443458557,
                    0.33329999446868896,
                    0.12549999356269836,
                    1
                ],
                "metallicFactor" : 0,
                "roughnessFactor" : 0.8333333134651184
            }
        },
        {
            "alphaMode" : "BLEND",
            "doubleSided" : true,
            "name" : "necklace_stone",
            "pbrMetallicRoughness" : {
                "baseColorFactor" : [
                    1,
                    1,
                    1,
                    0.699999988079071
                ],
                "metallicFactor" : 0,
                "roughnessFactor" : 0.7642977237701416
            }
        },
        {
            "doubleSided" : true,
            "name" : "images",
            "pbrMetallicRoughness" : {
                "metallicFactor" : 0,
                "roughnessFactor" : 0.8945907354354858
            }
        },
        {
            "doubleSided" : true,
            "name" : "0045_Goldenrod",
            "pbrMetallicRoughness" : {
                "baseColorFactor" : [
                    0.35690000653266907,
                    0.11760000139474869,
                    0.2353000044822693,
                    1
                ],
                "metallicFactor" : 0,
                "roughnessFactor" : 0.8945907354354858
            }
        }
    ],
    "meshes" : [
        {
            "name" : "11777_necklace_v1_l3",
            "primitives" : [
                {
                    "attributes" : {
                        "POSITION" : 0,
                        "NORMAL" : 1,
                        "TEXCOORD_0" : 2
                    },
                    "indices" : 3,
                    "material" : 0
                },
                {
                    "attributes" : {
                        "POSITION" : 4,
                        "NORMAL" : 5,
                        "TEXCOORD_0" : 6
                    },
                    "indices" : 7,
                    "material" : 1
                }
            ]
        },
        {
            "name" : "necklace",
            "primitives" : [
                {
                    "attributes" : {
                        "POSITION" : 8,
                        "NORMAL" : 9,
                        "TEXCOORD_0" : 10
                    },
                    "indices" : 11,
                    "material" : 2
                },
                {
                    "attributes" : {
                        "POSITION" : 12,
                        "NORMAL" : 13,
                        "TEXCOORD_0" : 14
                    },
                    "indices" : 15,
                    "material" : 3
                }
            ]
        }
    ],
    "accessors" : [
        {
            "bufferView" : 0,
            "componentType" : 5126,
            "count" : 30521,
            "max" : [
                0.3172309994697571,
                0.11626800149679184,
                -0.054972998797893524
            ],
            "min" : [
                -0.32663899660110474,
                0.018147999420762062,
                -1.1154730319976807
            ],
            "type" : "VEC3"
        },
        {
            "bufferView" : 1,
            "componentType" : 5126,
            "count" : 30521,
            "type" : "VEC3"
        },
        {
            "bufferView" : 2,
            "componentType" : 5126,
            "count" : 30521,
            "type" : "VEC2"
        },
        {
            "bufferView" : 3,
            "componentType" : 5123,
            "count" : 172080,
            "type" : "SCALAR"
        },
        {
            "bufferView" : 4,
            "componentType" : 5126,
            "count" : 3057,
            "max" : [
                0.026670999825000763,
                0.10403800010681152,
                -0.06110300123691559
            ],
            "min" : [
                -0.07013899832963943,
                0.00597799988463521,
                -0.22490300238132477
            ],
            "type" : "VEC3"
        },
        {
            "bufferView" : 5,
            "componentType" : 5126,
            "count" : 3057,
            "type" : "VEC3"
        },
        {
            "bufferView" : 6,
            "componentType" : 5126,
            "count" : 3057,
            "type" : "VEC2"
        },
        {
            "bufferView" : 7,
            "componentType" : 5123,
            "count" : 17712,
            "type" : "SCALAR"
        },
        {
            "bufferView" : 8,
            "componentType" : 5126,
            "count" : 5738,
            "max" : [
                27.35759925842285,
                27.616100311279297,
                9.999999974752427e-07
            ],
            "min" : [
                -26.14550018310547,
                -32.77289581298828,
                -137.7877960205078
            ],
            "type" : "VEC3"
        },
        {
            "bufferView" : 9,
            "componentType" : 5126,
            "count" : 5738,
            "type" : "VEC3"
        },
        {
            "bufferView" : 10,
            "componentType" : 5126,
            "count" : 5738,
            "type" : "VEC2"
        },
        {
            "bufferView" : 11,
            "componentType" : 5123,
            "count" : 10332,
            "type" : "SCALAR"
        },
        {
            "bufferView" : 12,
            "componentType" : 5126,
            "count" : 10802,
            "max" : [
                57.871299743652344,
                41.1431999206543,
                -16.799497604370117
            ],
            "min" : [
                -57.871299743652344,
                -38.23579406738281,
                -204.9564971923828
            ],
            "type" : "VEC3"
        },
        {
            "bufferView" : 13,
            "componentType" : 5126,
            "count" : 10802,
            "type" : "VEC3"
        },
        {
            "bufferView" : 14,
            "componentType" : 5126,
            "count" : 10802,
            "type" : "VEC2"
        },
        {
            "bufferView" : 15,
            "componentType" : 5123,
            "count" : 18768,
            "type" : "SCALAR"
        }
    ],
    "bufferViews" : [
        {
            "buffer" : 0,
            "byteLength" : 366252,
            "byteOffset" : 0
        },
        {
            "buffer" : 0,
            "byteLength" : 366252,
            "byteOffset" : 366252
        },
        {
            "buffer" : 0,
            "byteLength" : 244168,
            "byteOffset" : 732504
        },
        {
            "buffer" : 0,
            "byteLength" : 344160,
            "byteOffset" : 976672
        },
        {
            "buffer" : 0,
            "byteLength" : 36684,
            "byteOffset" : 1320832
        },
        {
            "buffer" : 0,
            "byteLength" : 36684,
            "byteOffset" : 1357516
        },
        {
            "buffer" : 0,
            "byteLength" : 24456,
            "byteOffset" : 1394200
        },
        {
            "buffer" : 0,
            "byteLength" : 35424,
            "byteOffset" : 1418656
        },
        {
            "buffer" : 0,
            "byteLength" : 68856,
            "byteOffset" : 1454080
        },
        {
            "buffer" : 0,
            "byteLength" : 68856,
            "byteOffset" : 1522936
        },
        {
            "buffer" : 0,
            "byteLength" : 45904,
            "byteOffset" : 1591792
        },
        {
            "buffer" : 0,
            "byteLength" : 20664,
            "byteOffset" : 1637696
        },
        {
            "buffer" : 0,
            "byteLength" : 129624,
            "byteOffset" : 1658360
        },
        {
            "buffer" : 0,
            "byteLength" : 129624,
            "byteOffset" : 1787984
        },
        {
            "buffer" : 0,
            "byteLength" : 86416,
            "byteOffset" : 1917608
        },
        {
            "buffer" : 0,
            "byteLength" : 37536,
            "byteOffset" : 2004024
        }
    ],
    "buffers" : [
        {
            "byteLength" : 2041560,
            "uri" : "model.bin"
        }
    ]
}
