{
    "asset" : {
        "generator" : "Khronos glTF Blender I/O v1.4.40",
        "version" : "2.0"
    },
    "scene" : 0,
    "scenes" : [
        {
            "name" : "Scene",
            "nodes" : [
                0
            ]
        }
    ],
    "nodes" : [
        {
            "mesh" : 0,
            "name" : "11777_necklace_v1_l3",
            "rotation" : [
                0.7071068286895752,
                0,
                0,
                0.7071068286895752
            ],
            "translation" : [
                0,
                -4.588955402374268,
                -1.0941636562347412
            ]
        }
    ],
    "materials" : [
        {
            "doubleSided" : true,
            "name" : "necklace_gold",
            "pbrMetallicRoughness" : {
                "baseColorFactor" : [
                    0.49410000443458557,
                    0.33329999446868896,
                    0.12549999356269836,
                    1
                ],
                "metallicFactor" : 0,
                "roughnessFactor" : 0.8333333134651184
            }
        },
        {
            "doubleSided" : true,
            "name" : "necklace_stone",
            "pbrMetallicRoughness" : {
                "baseColorFactor" : [
                    1,
                    1,
                    1,
                    0.699999988079071
                ],
                "baseColorTexture" : {
                    "index" : 0,
                    "texCoord" : 0
                },
                "metallicFactor" : 0,
                "roughnessFactor" : 0.7642977237701416
            }
        }
    ],
    "meshes" : [
        {
            "name" : "11777_necklace_v1_l3",
            "primitives" : [
                {
                    "attributes" : {
                        "POSITION" : 0,
                        "NORMAL" : 1,
                        "TEXCOORD_0" : 2
                    },
                    "indices" : 3,
                    "material" : 0
                },
                {
                    "attributes" : {
                        "POSITION" : 4,
                        "NORMAL" : 5,
                        "TEXCOORD_0" : 6
                    },
                    "indices" : 7,
                    "material" : 1
                }
            ]
        }
    ],
    "textures" : [
        {
            "sampler" : 0,
            "source" : 0
        }
    ],
    "images" : [
        {
            "mimeType" : "image/jpeg",
            "name" : "Necklace_stone",
            "uri" : "Necklace_stone.jpg"
        }
    ],
    "accessors" : [
        {
            "bufferView" : 0,
            "componentType" : 5126,
            "count" : 40857,
            "max" : [
                3.0571000576019287,
                13.813799858093262,
                -4.849599838256836
            ],
            "min" : [
                -3.3815999031066895,
                0.9761999845504761,
                -5.868299961090088
            ],
            "type" : "VEC3"
        },
        {
            "bufferView" : 1,
            "componentType" : 5126,
            "count" : 40857,
            "type" : "VEC3"
        },
        {
            "bufferView" : 2,
            "componentType" : 5126,
            "count" : 40857,
            "type" : "VEC2"
        },
        {
            "bufferView" : 3,
            "componentType" : 5123,
            "count" : 230448,
            "type" : "SCALAR"
        },
        {
            "bufferView" : 4,
            "componentType" : 5126,
            "count" : 3057,
            "max" : [
                0.4921000003814697,
                2.67549991607666,
                -4.72790002822876
            ],
            "min" : [
                -0.47600001096725464,
                1.037500023841858,
                -5.708499908447266
            ],
            "type" : "VEC3"
        },
        {
            "bufferView" : 5,
            "componentType" : 5126,
            "count" : 3057,
            "type" : "VEC3"
        },
        {
            "bufferView" : 6,
            "componentType" : 5126,
            "count" : 3057,
            "type" : "VEC2"
        },
        {
            "bufferView" : 7,
            "componentType" : 5123,
            "count" : 17712,
            "type" : "SCALAR"
        }
    ],
    "bufferViews" : [
        {
            "buffer" : 0,
            "byteLength" : 490284,
            "byteOffset" : 0
        },
        {
            "buffer" : 0,
            "byteLength" : 490284,
            "byteOffset" : 490284
        },
        {
            "buffer" : 0,
            "byteLength" : 326856,
            "byteOffset" : 980568
        },
        {
            "buffer" : 0,
            "byteLength" : 460896,
            "byteOffset" : 1307424
        },
        {
            "buffer" : 0,
            "byteLength" : 36684,
            "byteOffset" : 1768320
        },
        {
            "buffer" : 0,
            "byteLength" : 36684,
            "byteOffset" : 1805004
        },
        {
            "buffer" : 0,
            "byteLength" : 24456,
            "byteOffset" : 1841688
        },
        {
            "buffer" : 0,
            "byteLength" : 35424,
            "byteOffset" : 1866144
        }
    ],
    "samplers" : [
        {
            "magFilter" : 9729,
            "minFilter" : 9986
        }
    ],
    "buffers" : [
        {
            "byteLength" : 1901568,
            "uri" : "necklace.bin"
        }
    ]
}
