{
    "asset" : {
        "generator" : "Khronos glTF Blender I/O v1.5.17",
        "version" : "2.0"
    },
    "scene" : 0,
    "scenes" : [
        {
            "name" : "Scene",
            "nodes" : [
                0,
                1,
                2,
                3,
                4
            ]
        }
    ],
    "nodes" : [
        {
            "mesh" : 0,
            "name" : "Cube",
            "scale" : [
                0.00357239693403244,
                0.00357239693403244,
                0.00357239693403244
            ],
            "translation" : [
                0.3999011218547821,
                0.0030526798218488693,
                0
            ]
        },
        {
            "mesh" : 1,
            "name" : "Plane",
            "rotation" : [
                0.7071068286895752,
                0,
                0,
                0.7071068286895752
            ],
            "scale" : [
                0.5999533534049988,
                0.5999533534049988,
                0.5999533534049988
            ],
            "translation" : [
                -0.04759848862886429,
                0.16535311937332153,
                -0.0196890439838171
            ]
        },
        {
            "mesh" : 2,
            "name" : "Giraffe",
            "rotation" : [
                0,
                -0.45747485756874084,
                0,
                -0.8892225623130798
            ],
            "scale" : [
                0.009841881692409515,
                0.009841881692409515,
                0.009841881692409515
            ],
            "translation" : [
                0.43360742926597595,
                0.02532014437019825,
                -0.9400104284286499
            ]
        },
        {
            "mesh" : 3,
            "name" : "tiger",
            "rotation" : [
                0.9796558618545532,
                0,
                -0.2006848007440567,
                -3.9317436062447086e-07
            ],
            "scale" : [
                -0.011653222143650055,
                -0.011653222143650055,
                -0.011653222143650055
            ],
            "translation" : [
                -1.2533470392227173,
                0.11849827319383621,
                0.05924922227859497
            ]
        },
        {
            "mesh" : 4,
            "name" : "Zebra",
            "rotation" : [
                -0.6461760401725769,
                0,
                0.7631884217262268,
                2.593357919522532e-07
            ],
            "scale" : [
                -0.007011672016233206,
                -0.007011672016233206,
                -0.007011672016233206
            ],
            "translation" : [
                0.7930269837379456,
                -0.009115252643823624,
                0.5104541778564453
            ]
        }
    ],
    "animations" : [
        {
            "channels" : [
                {
                    "sampler" : 0,
                    "target" : {
                        "node" : 3,
                        "path" : "translation"
                    }
                }
            ],
            "name" : "tigerAction",
            "samplers" : [
                {
                    "input" : 24,
                    "interpolation" : "LINEAR",
                    "output" : 25
                }
            ]
        }
    ],
    "materials" : [
        {
            "doubleSided" : true,
            "name" : "Material.001",
            "pbrMetallicRoughness" : {
                "baseColorTexture" : {
                    "index" : 0
                },
                "metallicFactor" : 0,
                "roughnessFactor" : 0.5
            }
        },
        {
            "doubleSided" : true,
            "name" : "Material.002",
            "pbrMetallicRoughness" : {
                "baseColorTexture" : {
                    "index" : 1
                },
                "metallicFactor" : 0,
                "roughnessFactor" : 0.5
            }
        },
        {
            "doubleSided" : true,
            "name" : "Giraffe_mat",
            "pbrMetallicRoughness" : {
                "baseColorTexture" : {
                    "index" : 2
                },
                "metallicFactor" : 0
            }
        },
        {
            "doubleSided" : true,
            "name" : "Default_OBJ",
            "pbrMetallicRoughness" : {
                "baseColorTexture" : {
                    "index" : 3
                },
                "metallicFactor" : 0,
                "roughnessFactor" : 0.5
            }
        },
        {
            "doubleSided" : true,
            "name" : "Zebra_mat",
            "pbrMetallicRoughness" : {
                "baseColorTexture" : {
                    "index" : 4
                },
                "metallicFactor" : 0
            }
        }
    ],
    "meshes" : [
        {
            "name" : "Cube.002",
            "primitives" : [
                {
                    "attributes" : {
                        "POSITION" : 0,
                        "NORMAL" : 1,
                        "TEXCOORD_0" : 2
                    },
                    "indices" : 3
                }
            ]
        },
        {
            "name" : "Plane",
            "primitives" : [
                {
                    "attributes" : {
                        "POSITION" : 4,
                        "NORMAL" : 5,
                        "TEXCOORD_0" : 6
                    },
                    "indices" : 7,
                    "material" : 0
                },
                {
                    "attributes" : {
                        "POSITION" : 8,
                        "NORMAL" : 9,
                        "TEXCOORD_0" : 10
                    },
                    "indices" : 11,
                    "material" : 1
                }
            ]
        },
        {
            "name" : "Giraffe",
            "primitives" : [
                {
                    "attributes" : {
                        "POSITION" : 12,
                        "NORMAL" : 13,
                        "TEXCOORD_0" : 14
                    },
                    "indices" : 15,
                    "material" : 2
                }
            ]
        },
        {
            "name" : "tiger",
            "primitives" : [
                {
                    "attributes" : {
                        "POSITION" : 16,
                        "NORMAL" : 17,
                        "TEXCOORD_0" : 18
                    },
                    "indices" : 19,
                    "material" : 3
                }
            ]
        },
        {
            "name" : "Zebra",
            "primitives" : [
                {
                    "attributes" : {
                        "POSITION" : 20,
                        "NORMAL" : 21,
                        "TEXCOORD_0" : 22
                    },
                    "indices" : 23,
                    "material" : 4
                }
            ]
        }
    ],
    "textures" : [
        {
            "sampler" : 0,
            "source" : 0
        },
        {
            "sampler" : 0,
            "source" : 0
        },
        {
            "sampler" : 0,
            "source" : 1
        },
        {
            "sampler" : 0,
            "source" : 2
        },
        {
            "sampler" : 0,
            "source" : 3
        }
    ],
    "images" : [
        {
            "mimeType" : "image/jpeg",
            "name" : "cubbon",
            "uri" : "cubbon.jpg"
        },
        {
            "mimeType" : "image/jpeg",
            "name" : "Giraffe_BaseColor",
            "uri" : "Giraffe_BaseColor.jpg"
        },
        {
            "mimeType" : "image/jpeg",
            "name" : "bengal_tiger",
            "uri" : "bengal_tiger.jpg"
        },
        {
            "mimeType" : "image/png",
            "name" : "Zebra_BaseColor",
            "uri" : "Zebra_BaseColor.png"
        }
    ],
    "accessors" : [
        {
            "bufferView" : 0,
            "componentType" : 5126,
            "count" : 24,
            "max" : [
                1,
                1,
                1
            ],
            "min" : [
                -1,
                -1,
                -1
            ],
            "type" : "VEC3"
        },
        {
            "bufferView" : 1,
            "componentType" : 5126,
            "count" : 24,
            "type" : "VEC3"
        },
        {
            "bufferView" : 2,
            "componentType" : 5126,
            "count" : 24,
            "type" : "VEC2"
        },
        {
            "bufferView" : 3,
            "componentType" : 5123,
            "count" : 36,
            "type" : "SCALAR"
        },
        {
            "bufferView" : 4,
            "componentType" : 5126,
            "count" : 32,
            "max" : [
                0.04046500101685524,
                1.0165899991989136,
                -0.411545991897583
            ],
            "min" : [
                -0.010467000305652618,
                -0.9836140275001526,
                -1.7114579677581787
            ],
            "type" : "VEC3"
        },
        {
            "bufferView" : 5,
            "componentType" : 5126,
            "count" : 32,
            "type" : "VEC3"
        },
        {
            "bufferView" : 6,
            "componentType" : 5126,
            "count" : 32,
            "type" : "VEC2"
        },
        {
            "bufferView" : 7,
            "componentType" : 5123,
            "count" : 36,
            "type" : "SCALAR"
        },
        {
            "bufferView" : 8,
            "componentType" : 5126,
            "count" : 36,
            "max" : [
                -0.015396345406770706,
                1.1377427577972412,
                0.22263935208320618
            ],
            "min" : [
                -0.066328264772892,
                -1.1400436162948608,
                -1.5710281133651733
            ],
            "type" : "VEC3"
        },
        {
            "bufferView" : 9,
            "componentType" : 5126,
            "count" : 36,
            "type" : "VEC3"
        },
        {
            "bufferView" : 10,
            "componentType" : 5126,
            "count" : 36,
            "type" : "VEC2"
        },
        {
            "bufferView" : 11,
            "componentType" : 5123,
            "count" : 36,
            "type" : "SCALAR"
        },
        {
            "bufferView" : 12,
            "componentType" : 5126,
            "count" : 2214,
            "max" : [
                8.204673767089844,
                81.64240264892578,
                34.95077896118164
            ],
            "min" : [
                -8.204673767089844,
                -1.1000000085914508e-05,
                -18.275480270385742
            ],
            "type" : "VEC3"
        },
        {
            "bufferView" : 13,
            "componentType" : 5126,
            "count" : 2214,
            "type" : "VEC3"
        },
        {
            "bufferView" : 14,
            "componentType" : 5126,
            "count" : 2214,
            "type" : "VEC2"
        },
        {
            "bufferView" : 15,
            "componentType" : 5123,
            "count" : 3300,
            "type" : "SCALAR"
        },
        {
            "bufferView" : 16,
            "componentType" : 5126,
            "count" : 2723,
            "max" : [
                35.10407638549805,
                36.931304931640625,
                31.099285125732422
            ],
            "min" : [
                -27.90789222717285,
                2.167309045791626,
                -31.12321662902832
            ],
            "type" : "VEC3"
        },
        {
            "bufferView" : 17,
            "componentType" : 5126,
            "count" : 2723,
            "type" : "VEC3"
        },
        {
            "bufferView" : 18,
            "componentType" : 5126,
            "count" : 2723,
            "type" : "VEC2"
        },
        {
            "bufferView" : 19,
            "componentType" : 5123,
            "count" : 11169,
            "type" : "SCALAR"
        },
        {
            "bufferView" : 20,
            "componentType" : 5126,
            "count" : 1890,
            "max" : [
                9.67915153503418,
                66.50033569335938,
                52.103965759277344
            ],
            "min" : [
                -9.67915153503418,
                -1.700000029813964e-05,
                -32.1024284362793
            ],
            "type" : "VEC3"
        },
        {
            "bufferView" : 21,
            "componentType" : 5126,
            "count" : 1890,
            "type" : "VEC3"
        },
        {
            "bufferView" : 22,
            "componentType" : 5126,
            "count" : 1890,
            "type" : "VEC2"
        },
        {
            "bufferView" : 23,
            "componentType" : 5123,
            "count" : 2808,
            "type" : "SCALAR"
        },
        {
            "bufferView" : 24,
            "componentType" : 5126,
            "count" : 149,
            "max" : [
                4.966666666666667
            ],
            "min" : [
                0.03333333333333333
            ],
            "type" : "SCALAR"
        },
        {
            "bufferView" : 25,
            "componentType" : 5126,
            "count" : 149,
            "type" : "VEC3"
        }
    ],
    "bufferViews" : [
        {
            "buffer" : 0,
            "byteLength" : 288,
            "byteOffset" : 0
        },
        {
            "buffer" : 0,
            "byteLength" : 288,
            "byteOffset" : 288
        },
        {
            "buffer" : 0,
            "byteLength" : 192,
            "byteOffset" : 576
        },
        {
            "buffer" : 0,
            "byteLength" : 72,
            "byteOffset" : 768
        },
        {
            "buffer" : 0,
            "byteLength" : 384,
            "byteOffset" : 840
        },
        {
            "buffer" : 0,
            "byteLength" : 384,
            "byteOffset" : 1224
        },
        {
            "buffer" : 0,
            "byteLength" : 256,
            "byteOffset" : 1608
        },
        {
            "buffer" : 0,
            "byteLength" : 72,
            "byteOffset" : 1864
        },
        {
            "buffer" : 0,
            "byteLength" : 432,
            "byteOffset" : 1936
        },
        {
            "buffer" : 0,
            "byteLength" : 432,
            "byteOffset" : 2368
        },
        {
            "buffer" : 0,
            "byteLength" : 288,
            "byteOffset" : 2800
        },
        {
            "buffer" : 0,
            "byteLength" : 72,
            "byteOffset" : 3088
        },
        {
            "buffer" : 0,
            "byteLength" : 26568,
            "byteOffset" : 3160
        },
        {
            "buffer" : 0,
            "byteLength" : 26568,
            "byteOffset" : 29728
        },
        {
            "buffer" : 0,
            "byteLength" : 17712,
            "byteOffset" : 56296
        },
        {
            "buffer" : 0,
            "byteLength" : 6600,
            "byteOffset" : 74008
        },
        {
            "buffer" : 0,
            "byteLength" : 32676,
            "byteOffset" : 80608
        },
        {
            "buffer" : 0,
            "byteLength" : 32676,
            "byteOffset" : 113284
        },
        {
            "buffer" : 0,
            "byteLength" : 21784,
            "byteOffset" : 145960
        },
        {
            "buffer" : 0,
            "byteLength" : 22338,
            "byteOffset" : 167744
        },
        {
            "buffer" : 0,
            "byteLength" : 22680,
            "byteOffset" : 190084
        },
        {
            "buffer" : 0,
            "byteLength" : 22680,
            "byteOffset" : 212764
        },
        {
            "buffer" : 0,
            "byteLength" : 15120,
            "byteOffset" : 235444
        },
        {
            "buffer" : 0,
            "byteLength" : 5616,
            "byteOffset" : 250564
        },
        {
            "buffer" : 0,
            "byteLength" : 596,
            "byteOffset" : 256180
        },
        {
            "buffer" : 0,
            "byteLength" : 1788,
            "byteOffset" : 256776
        }
    ],
    "samplers" : [
        {
            "magFilter" : 9729,
            "minFilter" : 9987
        }
    ],
    "buffers" : [
        {
            "byteLength" : 258564,
            "uri" : "animals.bin"
        }
    ]
}
